<svg height="1000" viewBox="-500 -500 1000 1000" width="1000" xmlns="http://www.w3.org/2000/svg">
<g fill="rgba(0,0,0,1)" transform="matrix(0.866 0.5 -0.5 0.866 0 0)" vector-effect="non-scaling-stroke">
<rect fill="rgba(0,0,255,1)" height="50" transform="matrix(1 0 0 1 -500 -64.279)" vector-effect="non-scaling-stroke" width="10" x="0" y="0"/>
<rect fill="rgba(5,0,250,1)" height="50" transform="matrix(1 0 0 1 -480 -86.603)" vector-effect="non-scaling-stroke" width="10" x="0" y="0"/>
<rect fill="rgba(10,0,245,1)" height="50" transform="matrix(1 0 0 1 -460 -98.481)" vector-effect="non-scaling-stroke" width="10" x="0" y="0"/>
<rect fill="rgba(15,0,240,1)" height="50" transform="matrix(1 0 0 1 -440 -98.481)" vector-effect="non-scaling-stroke" width="10" x="0" y="0"/>
<rect fill="rgba(20,0,235,1)" height="50" transform="matrix(1 0 0 1 -420 -86.603)" vector-effect="non-scaling-stroke" width="10" x="0" y="0"/>
<rect fill="rgba(26,0,230,1)" height="50" transform="matrix(1 0 0 1 -400 -64.279)" vector-effect="non-scaling-stroke" width="10" x="0" y="0"/>
<rect fill="rgba(31,0,224,1)" height="50" transform="matrix(1 0 0 1 -380 -34.202)" vector-effect="non-scaling-stroke" width="10" x="0" y="0"/>
<rect fill="rgba(36,0,219,1)" height="50" transform="matrix(1 0 0 1 -360 0)" vector-effect="non-scaling-stroke" width="10" x="0" y="0"/>
<rect fill="rgba(41,0,214,1)" height="50" transform="matrix(1 0 0 1 -340 34.202)" vector-effect="non-scaling-stroke" width="10" x="0" y="0"/>
<rect fill="rgba(46,0,209,1)" height="50" transform="matrix(1 0 0 1 -320 64.279)" vector-effect="non-scaling-stroke" width="10" x="0" y="0"/>
<rect fill="rgba(51,0,204,1)" height="50" transform="matrix(1 0 0 1 -300 86.603)" vector-effect="non-scaling-stroke" width="10" x="0" y="0"/>
<rect fill="rgba(56,0,199,1)" height="50" transform="matrix(1 0 0 1 -280 98.481)" vector-effect="non-scaling-stroke" width="10" x="0" y="0"/>
<rect fill="rgba(61,0,194,1)" height="50" transform="matrix(1 0 0 1 -260 98.481)" vector-effect="non-scaling-stroke" width="10" x="0" y="0"/>
<rect fill="rgba(66,0,189,1)" height="50" transform="matrix(1 0 0 1 -240 86.603)" vector-effect="non-scaling-stroke" width="10" x="0" y="0"/>
<rect fill="rgba(71,0,184,1)" height="50" transform="matrix(1 0 0 1 -220 64.279)" vector-effect="non-scaling-stroke" width="10" x="0" y="0"/>
<rect fill="rgba(77,0,179,1)" height="50" transform="matrix(1 0 0 1 -200 34.202)" vector-effect="non-scaling-stroke" width="10" x="0" y="0"/>
<rect fill="rgba(82,0,173,1)" height="50" transform="matrix(1 0 0 1 -180 0)" vector-effect="non-scaling-stroke" width="10" x="0" y="0"/>
<rect fill="rgba(87,0,168,1)" height="50" transform="matrix(1 0 0 1 -160 -34.202)" vector-effect="non-scaling-stroke" width="10" x="0" y="0"/>
<rect fill="rgba(92,0,163,1)" height="50" transform="matrix(1 0 0 1 -140 -64.279)" vector-effect="non-scaling-stroke" width="10" x="0" y="0"/>
<rect fill="rgba(97,0,158,1)" height="50" transform="matrix(1 0 0 1 -120 -86.603)" vector-effect="non-scaling-stroke" width="10" x="0" y="0"/>
<rect fill="rgba(102,0,153,1)" height="50" transform="matrix(1 0 0 1 -100 -98.481)" vector-effect="non-scaling-stroke" width="10" x="0" y="0"/>
<rect fill="rgba(107,0,148,1)" height="50" transform="matrix(1 0 0 1 -80 -98.481)" vector-effect="non-scaling-stroke" width="10" x="0" y="0"/>
<rect fill="rgba(112,0,143,1)" height="50" transform="matrix(1 0 0 1 -60 -86.603)" vector-effect="non-scaling-stroke" width="10" x="0" y="0"/>
<rect fill="rgba(117,0,138,1)" height="50" transform="matrix(1 0 0 1 -40 -64.279)" vector-effect="non-scaling-stroke" width="10" x="0" y="0"/>
<rect fill="rgba(122,0,133,1)" height="50" transform="matrix(1 0 0 1 -20 -34.202)" vector-effect="non-scaling-stroke" width="10" x="0" y="0"/>
<rect fill="rgba(128,0,128,1)" height="50" width="10" x="0" y="0"/>
<rect fill="rgba(133,0,122,1)" height="50" transform="matrix(1 0 0 1 20 34.202)" vector-effect="non-scaling-stroke" width="10" x="0" y="0"/>
<rect fill="rgba(138,0,117,1)" height="50" transform="matrix(1 0 0 1 40 64.279)" vector-effect="non-scaling-stroke" width="10" x="0" y="0"/>
<rect fill="rgba(143,0,112,1)" height="50" transform="matrix(1 0 0 1 60 86.603)" vector-effect="non-scaling-stroke" width="10" x="0" y="0"/>
<rect fill="rgba(148,0,107,1)" height="50" transform="matrix(1 0 0 1 80 98.481)" vector-effect="non-scaling-stroke" width="10" x="0" y="0"/>
<rect fill="rgba(153,0,102,1)" height="50" transform="matrix(1 0 0 1 100 98.481)" vector-effect="non-scaling-stroke" width="10" x="0" y="0"/>
<rect fill="rgba(158,0,97,1)" height="50" transform="matrix(1 0 0 1 120 86.603)" vector-effect="non-scaling-stroke" width="10" x="0" y="0"/>
<rect fill="rgba(163,0,92,1)" height="50" transform="matrix(1 0 0 1 140 64.279)" vector-effect="non-scaling-stroke" width="10" x="0" y="0"/>
<rect fill="rgba(168,0,87,1)" height="50" transform="matrix(1 0 0 1 160 34.202)" vector-effect="non-scaling-stroke" width="10" x="0" y="0"/>
<rect fill="rgba(173,0,82,1)" height="50" transform="matrix(1 0 0 1 180 0)" vector-effect="non-scaling-stroke" width="10" x="0" y="0"/>
<rect fill="rgba(179,0,77,1)" height="50" transform="matrix(1 0 0 1 200 -34.202)" vector-effect="non-scaling-stroke" width="10" x="0" y="0"/>
<rect fill="rgba(184,0,71,1)" height="50" transform="matrix(1 0 0 1 220 -64.279)" vector-effect="non-scaling-stroke" width="10" x="0" y="0"/>
<rect fill="rgba(189,0,66,1)" height="50" transform="matrix(1 0 0 1 240 -86.603)" vector-effect="non-scaling-stroke" width="10" x="0" y="0"/>
<rect fill="rgba(194,0,61,1)" height="50" transform="matrix(1 0 0 1 260 -98.481)" vector-effect="non-scaling-stroke" width="10" x="0" y="0"/>
<rect fill="rgba(199,0,56,1)" height="50" transform="matrix(1 0 0 1 280 -98.481)" vector-effect="non-scaling-stroke" width="10" x="0" y="0"/>
<rect fill="rgba(204,0,51,1)" height="50" transform="matrix(1 0 0 1 300 -86.603)" vector-effect="non-scaling-stroke" width="10" x="0" y="0"/>
<rect fill="rgba(209,0,46,1)" height="50" transform="matrix(1 0 0 1 320 -64.279)" vector-effect="non-scaling-stroke" width="10" x="0" y="0"/>
<rect fill="rgba(214,0,41,1)" height="50" transform="matrix(1 0 0 1 340 -34.202)" vector-effect="non-scaling-stroke" width="10" x="0" y="0"/>
<rect fill="rgba(219,0,36,1)" height="50" transform="matrix(1 0 0 1 360 0)" vector-effect="non-scaling-stroke" width="10" x="0" y="0"/>
<rect fill="rgba(224,0,31,1)" height="50" transform="matrix(1 0 0 1 380 34.202)" vector-effect="non-scaling-stroke" width="10" x="0" y="0"/>
<rect fill="rgba(230,0,25,1)" height="50" transform="matrix(1 0 0 1 400 64.279)" vector-effect="non-scaling-stroke" width="10" x="0" y="0"/>
<rect fill="rgba(235,0,20,1)" height="50" transform="matrix(1 0 0 1 420 86.603)" vector-effect="non-scaling-stroke" width="10" x="0" y="0"/>
<rect fill="rgba(240,0,15,1)" height="50" transform="matrix(1 0 0 1 440 98.481)" vector-effect="non-scaling-stroke" width="10" x="0" y="0"/>
<rect fill="rgba(245,0,10,1)" height="50" transform="matrix(1 0 0 1 460 98.481)" vector-effect="non-scaling-stroke" width="10" x="0" y="0"/>
<rect fill="rgba(250,0,5,1)" height="50" transform="matrix(1 0 0 1 480 86.603)" vector-effect="non-scaling-stroke" width="10" x="0" y="0"/>
<rect fill="rgba(255,0,0,1)" height="50" transform="matrix(1 0 0 1 500 64.279)" vector-effect="non-scaling-stroke" width="10" x="0" y="0"/>
</g>
</svg>